#
# Comment line
##
 #
:version 1.10
:name BioSkeleton
:units
   mass 1.0
   length 1.0
   angle deg
:documentation
   Example of an Acclaim skeleton
   To be used with "Walk.amc"
:root
   axis XYZ
   order TX TY TZ RZ RY RX
   position 0.0 0.0 0.0
   orientation 0.0 0.0 0.0
:bonedata
begin
   id 1
   name hips
   direction 0.000000 1.000000 0.000000
   length 0.000000
   axis 0.00000 0.00000 0.00000 XYZ
   dof rx ry rz
   limits (-180.0 180.0)
      (-180.0 180.0)
      (-180.0 180.0)
end
begin
   id 2
   name hips1
   direction 0.000000 1.000000 0.000000
   length  4.310000
   axis 0.000 0.000 0.000 XYZ
end
begin
   id 3
   name chest
   direction 0.000000 1.000000 0.000000
   length 0.000000
   axis 0.00000 0.00000 0.00000 XYZ
   dof rx ry rz
   limits (-180.0 180.0)
      (-180.0 180.0)
      (-180.0 180.0)
end
begin
   id 4
   name chest1
   direction 0.000000 1.000000 0.000000
   length  16.870001
   axis 0.000 0.000 0.000 XYZ
end
begin
   id 5
   name neck
   direction 0.000000 1.000000 0.000000
   length 4.020000
   axis 0.00000 0.00000 0.00000 XYZ
   dof rx ry rz
   limits (-180.0 180.0)
      (-180.0 180.0)
      (-180.0 180.0)
end
begin
   id 6
   name head
   direction 1.000000 0.000000 0.000000
   length 0.000000
   axis 0.00000 0.00000 0.00000 XYZ
   dof rx ry rz
   limits (-180.0 180.0)
      (-180.0 180.0)
      (-180.0 180.0)
end
begin
   id 7
   name chest2
   direction 0.068191 0.991126 0.114101
   length  14.811435
   axis 0.000 0.000 0.000 XYZ
end
begin
   id 8
   name leftcollar
   direction 1.000000 0.000000 0.000000
   length 4.830000
   axis 0.00000 0.00000 0.00000 XYZ
   dof rx ry rz
   limits (-180.0 180.0)
      (-180.0 180.0)
      (-180.0 180.0)
end
begin
   id 9
   name leftuparm
   direction 0.000000 -1.000000 0.000000
   length 12.160000
   axis 0.00000 0.00000 0.00000 XYZ
   dof rx ry rz
   limits (-180.0 180.0)
      (-180.0 180.0)
      (-180.0 180.0)
end
begin
   id 10
   name leftlowarm
   direction 0.000000 -1.000000 0.000000
   length 9.700000
   axis 0.00000 0.00000 0.00000 XYZ
   dof rx ry rz
   limits (-180.0 180.0)
      (-180.0 180.0)
      (-180.0 180.0)
end
begin
   id 11
   name lefthand
   direction 1.000000 0.000000 0.000000
   length 0.000000
   axis 0.00000 0.00000 0.00000 XYZ
   dof rx ry rz
   limits (-180.0 180.0)
      (-180.0 180.0)
      (-180.0 180.0)
end
begin
   id 12
   name chest3
   direction -0.068191 0.991126 0.114101
   length  14.811435
   axis 0.000 0.000 0.000 XYZ
end
begin
   id 13
   name rightcollar
   direction -1.000000 0.000000 0.000000
   length 5.390000
   axis 0.00000 0.00000 0.00000 XYZ
   dof rx ry rz
   limits (-180.0 180.0)
      (-180.0 180.0)
      (-180.0 180.0)
end
begin
   id 14
   name rightuparm
   direction 0.000000 -1.000000 0.000000
   length 12.480000
   axis 0.00000 0.00000 0.00000 XYZ
   dof rx ry rz
   limits (-180.0 180.0)
      (-180.0 180.0)
      (-180.0 180.0)
end
begin
   id 15
   name rightlowarm
   direction 0.000000 -1.000000 0.000000
   length 10.060000
   axis 0.00000 0.00000 0.00000 XYZ
   dof rx ry rz
   limits (-180.0 180.0)
      (-180.0 180.0)
      (-180.0 180.0)
end
begin
   id 16
   name righthand
   direction 1.000000 0.000000 0.000000
   length 0.000000
   axis 0.00000 0.00000 0.00000 XYZ
   dof rx ry rz
   limits (-180.0 180.0)
      (-180.0 180.0)
      (-180.0 180.0)
end
begin
   id 17
   name hips2
   direction 1.000000 0.000000 0.000000
   length  3.240000
   axis 0.000 0.000 0.000 XYZ
end
begin
   id 18
   name leftupleg
   direction 0.000000 -1.000000 0.000000
   length 17.290001
   axis 0.00000 0.00000 0.00000 XYZ
   dof rx ry rz
   limits (-180.0 180.0)
      (-180.0 180.0)
      (-180.0 180.0)
end
begin
   id 19
   name leftlowleg
   direction 0.000000 -1.000000 0.000000
   length 16.400000
   axis 0.00000 0.00000 0.00000 XYZ
   dof rx ry rz
   limits (-180.0 180.0)
      (-180.0 180.0)
      (-180.0 180.0)
end
begin
   id 20
   name leftfoot
   direction 1.000000 0.000000 0.000000
   length 0.000000
   axis 0.00000 0.00000 0.00000 XYZ
   dof rx ry rz
   limits (-180.0 180.0)
      (-180.0 180.0)
      (-180.0 180.0)
end
begin
   id 21
   name hips3
   direction -1.000000 0.000000 0.000000
   length  3.240000
   axis 0.000 0.000 0.000 XYZ
end
begin
   id 22
   name rightupleg
   direction 0.000000 -1.000000 0.000000
   length 17.680000
   axis 0.00000 0.00000 0.00000 XYZ
   dof rx ry rz
   limits (-180.0 180.0)
      (-180.0 180.0)
      (-180.0 180.0)
end
begin
   id 23
   name rightlowleg
   direction 0.000000 -1.000000 0.000000
   length 15.510000
   axis 0.00000 0.00000 0.00000 XYZ
   dof rx ry rz
   limits (-180.0 180.0)
      (-180.0 180.0)
      (-180.0 180.0)
end
begin
   id 24
   name rightfoot
   direction 1.000000 0.000000 0.000000
   length 0.000000
   axis 0.00000 0.00000 0.00000 XYZ
   dof rx ry rz
   limits (-180.0 180.0)
      (-180.0 180.0)
      (-180.0 180.0)
end
:hierarchy
begin
   root hips
   hips hips1 hips2 hips3
   hips1 chest
   chest chest1 chest2 chest3
   chest1 neck
   neck head
   chest2 leftcollar
   leftcollar leftuparm
   leftuparm leftlowarm
   leftlowarm lefthand
   chest3 rightcollar
   rightcollar rightuparm
   rightuparm rightlowarm
   rightlowarm righthand
   hips2 leftupleg
   leftupleg leftlowleg
   leftlowleg leftfoot
   hips3 rightupleg
   rightupleg rightlowleg
   rightlowleg rightfoot
end

:FULLY-SPECIFIED
:DEGREES
1
root -1.244205 36.710186 -1.148101 0.958161 4.190043 -18.282991
hips 0.000000 0.000000 0.000000
chest 15.511776 -2.804996 -0.725314
neck 48.559605 0.000000 0.014236
head -38.332661 1.462782 -1.753684
leftcollar 0.000000 15.958783 0.921166
leftuparm -10.319685 -15.040003 63.091194
leftlowarm -27.769176 -15.856658 8.187016
lefthand 2.601753 -0.217064 -5.543770
rightcollar 0.000000 -8.470076 2.895008
rightuparm 6.496142 9.551583 -57.854118
rightlowarm -26.983490 11.338276 -5.716377
righthand -6.387745 -1.258509 5.876069
leftupleg 23.412262 -5.325913 12.099395
leftlowleg -6.933442 -6.276054 -1.363996
leftfoot -1.877641 4.455667 -6.275022
rightupleg 20.698696 3.189690 -8.377244
rightlowleg 3.445840 -6.717122 2.046032
rightfoot -8.162314 0.687809 9.000264
2
root -0.227361 37.620358 1.672587 0.204373 -4.264866 -12.155879
hips 0.000000 0.000000 0.000000
chest 14.747641 2.858763 -1.345236
neck 44.651531 0.000000 -0.099206
head -38.546989 0.678145 -4.633668
leftcollar 0.000000 7.233337 -5.791124
leftuparm 9.928153 -50.015823 25.218475
leftlowarm -40.443512 -0.566324 0.482702
lefthand 6.011584 -0.216811 4.576208
rightcollar 0.000000 -1.936009 5.471129
rightuparm 3.926107 32.418419 -26.396805
rightlowarm -43.958717 3.548671 -3.415734
righthand -4.901258 -0.112565 0.681468
leftupleg 11.932759 0.406248 -1.921313
leftlowleg 13.698170 5.503362 2.643481
leftfoot -16.237123 2.755839 -7.182952
rightupleg 13.767217 0.331739 -1.353482
rightlowleg 22.576195 -7.388037 -3.537788
rightfoot -19.946142 2.525145 8.668705
3
root -0.063300 37.547089 2.481247 0.200932 -3.125850 -12.853047
hips 0.000000 0.000000 0.000000
chest 15.967649 1.166141 -1.947811
neck 44.329151 0.000000 -0.572143
head -39.101067 1.654213 -4.545489
leftcollar 0.000000 7.294538 -5.739121
leftuparm 7.765212 -51.353905 26.727594
leftlowarm -40.128323 0.694536 -0.585406
lefthand 6.188251 -0.232861 4.668415
rightcollar 0.000000 -2.161530 5.549646
rightuparm 4.873715 32.449013 -25.569733
rightlowarm -43.843590 3.894700 -3.732406
righthand -4.787661 -0.183519 1.084589
leftupleg 14.886056 0.422370 -1.588593
leftlowleg 11.735123 4.303958 1.623338
leftfoot -16.428200 2.731781 -7.192109
rightupleg 10.542334 0.220308 -1.183789
rightlowleg 30.519621 -9.759288 -5.368405
rightfoot -18.560038 2.313270 8.727212
4
root 0.069547 37.527508 3.305831 -0.007103 -1.626117 -13.083184
hips 0.000000 0.000000 0.000000
chest 16.718678 -0.870434 -2.331764
neck 44.120792 0.000000 -0.576808
head -39.525879 2.208667 -4.830983
leftcollar 0.000000 7.019839 -5.486790
leftuparm 5.487713 -52.389015 28.085150
leftlowarm -39.864235 1.373637 -1.146819
lefthand 6.657416 -0.244501 4.564395
rightcollar 0.000000 -2.476253 5.739716
rightuparm 5.984721 32.836674 -24.752243
rightlowarm -43.450516 4.066107 -3.842918
righthand -4.534015 -0.229589 1.334636
leftupleg 17.483494 0.257066 -0.816065
leftlowleg 9.586210 2.807094 0.646083
leftfoot -16.516464 2.720633 -7.196306
rightupleg 7.064266 0.097869 -0.789754
rightlowleg 36.473431 -12.001499 -6.801083
rightfoot -17.177519 2.100533 8.780440
5
root 0.169173 37.571121 4.164638 -0.426392 0.267302 -13.002790
hips 0.000000 0.000000 0.000000
chest 17.259289 -3.371531 -2.485009
neck 43.923553 0.000000 -0.350766
head -39.763195 2.594116 -5.217428
leftcollar 0.000000 6.720881 -5.100962
leftuparm 2.674426 -53.092823 29.686481
leftlowarm -39.791374 1.420140 -1.182564
lefthand 7.197118 -0.226746 4.241995
rightcollar 0.000000 -2.799336 6.089942
rightuparm 7.294677 33.587460 -24.007925
rightlowarm -42.713947 4.041123 -3.722524
righthand -4.310458 -0.273255 1.560135
leftupleg 19.884031 -0.135995 0.375808
leftlowleg 7.258138 1.083885 -0.230437
leftfoot -16.482098 2.724957 -7.194669
rightupleg 3.671110 0.013243 -0.207622
rightlowleg 39.335812 -14.434411 -7.446586
rightfoot -16.061508 1.927877 8.819681
6
root 0.239492 37.642967 5.072669 -0.873039 2.443537 -12.737021
hips 0.000000 0.000000 0.000000
chest 17.729717 -6.090557 -2.566799
neck 43.594505 0.000000 0.376820
head -39.642891 2.575771 -5.812213
leftcollar 0.000000 6.318354 -4.362224
leftuparm -0.495124 -52.947803 31.157539
leftlowarm -40.045620 0.647080 -0.543815
lefthand 7.349116 -0.172772 3.613549
rightcollar 0.000000 -3.081404 6.628276
rightuparm 9.023256 34.341602 -23.219097
rightlowarm -41.781189 3.961121 -3.532012
righthand -4.184539 -0.301361 1.660491
leftupleg 22.185276 -0.718448 1.761186
leftlowleg 4.783736 -0.758428 -0.959021
leftfoot -16.320137 2.745368 -7.186914
rightupleg 0.551471 -0.002842 0.293614
rightlowleg 38.675320 -17.109793 -7.241562
rightfoot -15.091853 1.777232 8.851013
